<svg xmlns="http://www.w3.org/2000/svg" viewBox="0 0 64 64" role="img" aria-label="developer mwilwaji logo">
  <rect width="64" height="64" rx="14" fill="#0e0e10"/>
  <path fill="#22c55e" d="M35.6 8.5h-7.2l-1.2 6a19.7 19.7 0 0 0-4.5 1.9l-5.1-3.4-5.1 5.1 3.4 5.1a19.7 19.7 0 0 0-1.9 4.5l-6 1.2v7.2l6 1.2a19.7 19.7 0 0 0 1.9 4.5l-3.4 5.1 5.1 5.1 5.1-3.4a19.7 19.7 0 0 0 4.5 1.9l1.2 6h7.2l1.2-6a19.7 19.7 0 0 0 4.5-1.9l5.1 3.4 5.1-5.1-3.4-5.1a19.7 19.7 0 0 0 1.9-4.5l6-1.2v-7.2l-6-1.2a19.7 19.7 0 0 0-1.9-4.5l3.4-5.1-5.1-5.1-5.1 3.4a19.7 19.7 0 0 0-4.5-1.9l-1.2-6Z"/>
  <circle cx="32" cy="32" r="14.5" fill="#e5e1e4"/>
  <path d="m27 25-6 7 6 7M37 25l6 7-6 7M35 23l-6 18" fill="none" stroke="#004b1e" stroke-width="3.2" stroke-linecap="round" stroke-linejoin="round"/>
</svg>
